<svg width="24" height="24" viewBox="0 0 24 24" fill="none" xmlns="http://www.w3.org/2000/svg">
<path fill-rule="evenodd" clip-rule="evenodd" d="M10.5382 3.99955C10.5338 2.49856 8.78141 2 6.99997 2L4.49998 6.55002L2 7.99963V14L9.39219 15.2897C9.62469 15.3197 9.84181 15.3334 10.0449 15.3334C12.1582 15.3334 12.7437 13.8345 12.977 13.237C13.4314 12.0709 13.809 9.96463 13.9497 9.16058L13.9511 9.15598C14.1018 8.2572 13.9015 7.43881 13.3875 6.85119C13.067 6.48491 12.6378 6.22194 12.141 6.09186C11.9097 6.0313 11.6637 5.99952 11.4072 5.99952H10.1012C10.1012 5.99952 10.3046 5.19467 10.4577 4.59823C10.513 4.38294 10.5388 4.18367 10.5382 3.99955ZM11.8824 8.16824C11.8224 8.09975 11.6853 7.99948 11.4072 7.99948H7.53294C7.61544 7.67292 7.69786 7.34633 7.7802 7.0197L7.78077 7.0175L7.78081 7.01741C8.01706 6.08061 8.25336 5.14377 8.49308 4.20781L8.12647 4.10305L5.98475 8.00089L3.99997 9.15177V12.3186L9.68727 13.3109C9.82306 13.327 9.9417 13.3333 10.0449 13.3333C10.3316 13.3333 10.4975 13.2837 10.5855 13.2466C10.6729 13.2097 10.7342 13.1638 10.7865 13.1104C10.9156 12.9783 11.0003 12.8005 11.1138 12.5101C11.4804 11.5692 11.8276 9.68473 11.9796 8.81572L11.9841 8.79041C12.042 8.39853 11.9323 8.22547 11.8824 8.16824ZM10.6125 17.1489C10.4046 16.9112 10.248 16.6357 10.1452 16.3325C10.9417 16.3176 11.5926 16.1263 12.1179 15.8321C12.178 15.9006 12.3152 16.0005 12.5928 16.0005H16.4671L15.8377 18.4911L15.8373 18.4929L15.8355 18.4999L15.8287 18.5266L15.8035 18.6264L15.7165 18.9695C15.6469 19.2438 15.5771 19.518 15.5069 19.7922C15.596 19.8264 15.7166 19.8635 15.8735 19.897L17.7472 16.487L18.0153 15.9991L18.4968 15.7199L20 14.8482V11.6814L14.6688 10.7512C14.7833 10.1885 14.8712 9.69533 14.925 9.38867L14.9274 9.38061L14.9373 9.3215C14.9677 9.14166 14.987 8.96013 14.9953 8.77794L22 10.0001V16.0004L19.5 17.45L17 22.0001C15.2186 22.0001 13.4662 21.5015 13.4618 20.0005C13.4613 19.8164 13.487 19.6171 13.5423 19.4018C13.6955 18.8053 13.8988 18.0005 13.8988 18.0005H12.5928C12.3363 18.0005 12.0903 17.9688 11.859 17.9082C11.3622 17.7781 10.9331 17.5152 10.6125 17.1489Z" fill="#082149"/>
</svg>
